<svg class="fav" viewBox="0 0 400 1000" width="100px" height="100px" xmlns="http://www.w3.org/2000/svg">
<path d="m531.1 390.09c.13-.22.28-.22.46 0l-.27.22z" fill="#0124dd"/>
<path d="m250.04 506.9-124.57-124.57v19.12l105.45 105.45.04.04-91.34 91.34-.11-.11-91.28-91.27-.08-.08 44.81-44.81h-19.45l-44.85 44.85.04.04 110.77 110.77.04-.04 110.63-110.63z" fill="#fe6309"/>
<path d="m125.43 414.61v19.12l73.21 73.21-58.98 58.98-59.03-59.02-.08-.08 44.81-44.81h-19.45l-44.85 44.85.04.04 68.79 68.79 9.62 9.62 9.78-9.77 68.53-68.54z" fill="#fe6309"/>
<path d="m185.53 506.9-36.53-36.57-9.72-9.72-9.56 9.56-36.72 36.69 36.74 36.74 9.62 9.62 9.76-9.77 36.51-36.45zm-46 27-27-27-.08-.08 26.93-26.93 27 27z" fill="#fe6309"/>
</svg>